<?xml version="1.0" encoding="utf-8"?>
<!-- Generator: Adobe Illustrator 25.0.0, SVG Export Plug-In . SVG Version: 6.00 Build 0)  -->
<svg version="1.1" id="Layer_1" xmlns="http://www.w3.org/2000/svg" xmlns:xlink="http://www.w3.org/1999/xlink" x="0px" y="0px"
	 viewBox="0 0 512 512" style="enable-background:new 0 0 512 512;" xml:space="preserve">
<style type="text/css">
	.st0{fill:#FC5837;}
</style>
<g>
	<g>
		<polygon points="291.9,31.2 196.8,31.2 393.6,480.8 488,480.8 		"/>
		<path d="M0,480.8c16,0,32.7,0,48.7,0c45.8-102.4,92.2-205.5,138-307.9c-12.3-12.3-24-24.7-36.3-37c-6.5,14.5-69,158.3-75.5,173.6
			C68.3,323.9,5.8,466.2,0,480.8z"/>
	</g>
	<g>
		<path class="st0" d="M197.5,254.2c62.5,32,124.2,63.2,186.6,95.1c29-78.4,58.1-156.1,87.1-234.6c0,0.7,0,1.5,0.7,2.9
			c0,0.7,0.7,1.5,0.7,2.2c0.7,0.7,1.5,2.2,2.2,2.9c10.9,12.3,22.5,24,33.4,36.3c0.7,0.7,1.5,2.2,3.6,2.9c-2.9-16.7-5.1-32.7-8-49.4
			c0-0.7,0-0.7,0-1.5c-0.7-3.6-0.7-6.5-1.5-10.2c-3.6-22.5-7.3-45-10.9-67.5c0-0.7-0.7-1.5-0.7-2.2l-0.7,0.7c-0.7,0-1.5,0-2.2,0.7
			c-18.2,13.1-37,26.1-55.2,38.5c-2.2,2.2-4.4,3.6-7.3,5.8c-0.7,0-0.7,0.7-0.7,0.7c-13.8,9.4-26.9,18.9-40.7,28.3
			c2.2,0.7,2.9,0.7,4.4,0.7c16,0,32.7-0.7,48.7-0.7c1.5,0,2.2,0,3.6-0.7c0.7,0,1.5,0,2.2-0.7c1.5-0.7,2.2-1.5,3.6-2.2
			c-29,61.7-58.1,123.5-87.1,185.2c-8.7-3.6-20.3-9.4-34.1-16c-26.1-13.1-45-24.7-50.8-29c-8.7-5.1-20.3-13.1-33.4-23.2
			c-15.3-11.6-34.1-26.9-54.5-46.5c-23.2,50.8-46.5,102.4-69.7,154s-45.8,102.4-68.3,154h47.2C130,405.2,164.1,329.7,197.5,254.2z"
			/>
	</g>
</g>
</svg>
