<?xml version="1.0" encoding="UTF-8"?>
<svg id="Layer_1" data-name="Layer 1" xmlns="http://www.w3.org/2000/svg" viewBox="0 0 115.18 115.18">
  <defs>
    <style>
      .cls-1 {
        fill: #faaf43;
      }
    </style>
  </defs>
  <path class="cls-1" d="M36.14,43.46c-1.57-1.32-3.44-1.98-5.61-1.98H11.7v32.79c0,.61.26,1.14.79,1.57.53.43,1.17.65,1.93.65s1.36-.21,1.88-.65c.52-.43.77-.95.77-1.57v-11.17h13.46c2.19,0,4.07-.65,5.63-1.95,1.56-1.3,2.34-2.86,2.34-4.69v-8.3c0-1.83-.79-3.4-2.35-4.71ZM33.19,56.47c0,.61-.26,1.14-.79,1.57s-1.15.65-1.86.65h-13.46v-12.72h13.46c.72,0,1.34.22,1.86.65.53.43.79.95.79,1.57v8.3Z"/>
  <path class="cls-1" d="M52.15,43.7c0-.6-.26-1.12-.79-1.55-.53-.44-1.15-.66-1.86-.66s-1.34.22-1.87.66c-.53.44-.79.96-.79,1.55v32.79h24.08c.74,0,1.38-.21,1.91-.65.54-.43.81-.95.81-1.57s-.27-1.14-.81-1.57c-.54-.43-1.17-.65-1.91-.65h-18.78v-28.37Z"/>
  <path class="cls-1" d="M83.85,73.25c.53.83,1.46,1.57,2.81,2.24,1.35.67,2.66,1,3.92,1h9.92c.74,0,1.38-.21,1.91-.65.54-.43.81-.95.81-1.57s-.27-1.14-.81-1.57c-.54-.43-1.18-.65-1.91-.65h-9.58c-1.2,0-2.07-.46-2.59-1.39l-5.62-9.01c-.51-.79-.76-1.7-.75-2.74,0-.98.23-1.84.69-2.56l5.89-9.16c.53-.82,1.21-1.24,2.06-1.24h10.11c.74,0,1.36-.22,1.88-.67.52-.45.77-.98.77-1.59s-.26-1.12-.77-1.55c-.52-.44-1.14-.66-1.88-.66h-10.49c-1.16,0-2.36.35-3.6,1.04-1.24.69-2.16,1.5-2.75,2.41l-6.19,9.77c-.78,1.21-1.17,2.64-1.17,4.29,0,1.49.41,2.95,1.23,4.37l6.13,9.88Z"/>
  <path class="cls-1" d="M107.2,0H7.98C3.58,0,0,3.58,0,7.98v99.21c0,4.4,3.58,7.98,7.98,7.98h99.21c4.4,0,7.98-3.58,7.98-7.98V7.98c0-4.4-3.58-7.98-7.98-7.98ZM113.39,27h-18.72c-.6,0-1.09-.49-1.09-1.09v-12.23c0-1.59-1.29-2.88-2.88-2.88h-13.44c-.4-1.54-1.79-2.69-3.46-2.69-1.98,0-3.59,1.61-3.59,3.59s1.61,3.59,3.59,3.59c1.67,0,3.06-1.15,3.46-2.69h13.44c.6,0,1.09.49,1.09,1.09v12.23c0,1.59,1.29,2.88,2.88,2.88h18.72v78.41c0,3.41-2.78,6.19-6.19,6.19h-2.81v-24.12c0-1.59-1.29-2.88-2.88-2.88h-13.44c-.4-1.54-1.79-2.69-3.46-2.69-1.98,0-3.59,1.61-3.59,3.59s1.61,3.59,3.59,3.59c1.67,0,3.06-1.15,3.46-2.69h13.44c.6,0,1.09.49,1.09,1.09v24.12h-57.6v-13.32c0-.6.49-1.09,1.09-1.09h18.77c.28,1.7,1.75,3.01,3.53,3.01,1.98,0,3.59-1.61,3.59-3.59s-1.61-3.59-3.59-3.59c-1.55,0-2.86,1-3.36,2.38h-18.93c-1.59,0-2.88,1.29-2.88,2.88v13.32H7.98c-3.41,0-6.19-2.78-6.19-6.19v-19.03h25.32c.4,1.55,1.79,2.71,3.47,2.71,1.98,0,3.59-1.61,3.59-3.59s-1.61-3.59-3.59-3.59c-1.66,0-3.05,1.14-3.46,2.68H1.79V7.98C1.79,4.57,4.57,1.79,7.98,1.79h19.11v19.11c0,.42-.56.79-1.19.79h-13.41c-.36-1.6-1.79-2.8-3.5-2.8-1.98,0-3.59,1.61-3.59,3.59s1.61,3.59,3.59,3.59c1.71,0,3.13-1.2,3.49-2.79h13.41c1.53,0,2.78-1.07,2.78-2.38V1.79h20.01v19.89c-1.6.36-2.8,1.79-2.8,3.5,0,1.98,1.61,3.59,3.59,3.59s3.59-1.61,3.59-3.59c0-1.7-1.19-3.11-2.77-3.49V1.79h56.9c3.41,0,6.19,2.78,6.19,6.19v19.01ZM75.59,11.7c0,.99-.8,1.79-1.79,1.79s-1.8-.8-1.8-1.79.81-1.8,1.8-1.8,1.79.81,1.79,1.8ZM86.39,87.29c0,.99-.8,1.8-1.79,1.8s-1.8-.81-1.8-1.8.81-1.79,1.8-1.79,1.79.8,1.79,1.79ZM66.58,98.4c0-.99.8-1.8,1.79-1.8s1.8.81,1.8,1.8-.81,1.79-1.8,1.79-1.79-.8-1.79-1.79ZM28.79,87.29c0-.99.81-1.79,1.8-1.79s1.79.8,1.79,1.79-.8,1.8-1.79,1.8-1.8-.81-1.8-1.8ZM10.79,22.49c0,.99-.8,1.79-1.79,1.79s-1.8-.8-1.8-1.79.81-1.8,1.8-1.8,1.79.81,1.79,1.8ZM49.48,23.39c.99,0,1.8.8,1.8,1.79s-.81,1.8-1.8,1.8-1.79-.81-1.79-1.8.8-1.79,1.79-1.79Z"/>
</svg>